<?xml version="1.0" standalone="no"?>
<!DOCTYPE svg PUBLIC "-//W3C//DTD SVG 20010904//EN"
 "http://www.w3.org/TR/2001/REC-SVG-20010904/DTD/svg10.dtd">
<svg version="1.0" xmlns="http://www.w3.org/2000/svg"
 width="1200.000000pt" height="1200.000000pt" viewBox="0 0 1200.000000 1200.000000"
 preserveAspectRatio="xMidYMid meet">
<metadata>
Created by potrace 1.14, written by Peter Selinger 2001-2017
</metadata>
<g transform="translate(0.000000,1200.000000) scale(0.100000,-0.100000)"
fill="#000000" stroke="none">
<path d="M2 6852 c3 -943 4 -997 20 -994 11 2 18 -3 18 -13 0 -8 11 -21 25
-27 14 -6 25 -16 25 -22 0 -14 25 -36 63 -55 15 -8 27 -18 27 -23 0 -4 6 -8
13 -8 16 -1 57 -35 57 -49 0 -6 5 -11 10 -11 6 0 10 -6 10 -14 0 -8 7 -16 15
-20 8 -3 15 -1 15 5 0 5 6 4 14 -3 8 -7 13 -15 13 -18 -1 -3 2 -6 6 -7 5 -1
16 -10 25 -21 9 -10 25 -21 34 -25 10 -3 18 -11 18 -17 0 -6 5 -8 12 -4 8 5 9
2 5 -9 -4 -11 -1 -17 7 -17 7 0 21 -9 31 -20 10 -11 20 -18 23 -16 2 3 13 -4
25 -14 11 -11 24 -17 29 -14 4 3 8 -2 8 -10 0 -9 3 -15 7 -14 12 4 59 -31 54
-40 -2 -4 6 -11 18 -17 11 -5 21 -13 21 -17 0 -5 7 -8 15 -8 8 0 15 -5 15 -11
0 -5 4 -8 9 -5 5 3 12 -1 15 -10 3 -8 10 -12 16 -9 5 3 10 1 10 -5 0 -6 6 -17
13 -24 19 -19 77 -58 77 -52 0 3 12 -6 26 -19 15 -14 31 -25 36 -25 5 0 6 -4
3 -10 -3 -5 5 -15 19 -22 14 -6 26 -15 26 -20 0 -4 6 -8 13 -8 6 0 25 -11 41
-25 16 -13 37 -27 47 -30 11 -4 19 -10 19 -15 0 -5 9 -11 20 -15 11 -3 19 -10
17 -15 -3 -10 157 -120 175 -120 10 0 11 -2 0 -8 -9 -6 -5 -12 13 -20 32 -15
38 -15 29 0 -4 7 -3 8 5 4 9 -6 9 -11 0 -22 -9 -11 -8 -14 3 -14 8 0 24 -9 36
-20 12 -11 26 -20 32 -20 5 0 10 -4 10 -10 0 -5 5 -10 11 -10 15 0 39 -26 32
-34 -4 -3 1 -6 9 -6 9 0 19 -7 22 -16 3 -8 10 -12 16 -9 5 3 10 2 10 -2 0 -5
22 -22 50 -38 27 -17 50 -34 50 -38 0 -5 4 -6 9 -3 5 3 12 -1 15 -10 3 -8 11
-12 17 -9 6 4 9 0 7 -11 -2 -10 2 -19 8 -19 6 0 18 -7 27 -15 30 -27 47 -40
52 -41 11 0 65 -35 65 -41 0 -5 5 -8 12 -8 6 0 23 -13 37 -29 14 -15 45 -41
69 -56 23 -15 42 -32 42 -37 0 -5 4 -7 9 -4 5 3 26 -8 46 -24 21 -17 44 -30
51 -30 8 0 14 -6 14 -13 0 -16 22 -34 98 -81 34 -22 62 -43 62 -48 0 -5 5 -6
10 -3 6 3 10 -3 10 -14 0 -12 3 -20 8 -20 27 5 49 -4 57 -23 6 -13 15 -23 20
-22 6 0 21 -10 35 -23 14 -13 30 -23 37 -23 7 0 13 -5 13 -11 0 -5 5 -7 10 -4
6 3 10 1 10 -5 0 -6 11 -16 25 -22 19 -8 22 -14 13 -20 -10 -6 -8 -8 5 -8 9 0
17 -4 17 -10 0 -5 7 -10 15 -10 8 0 15 -4 15 -10 0 -5 5 -10 11 -10 6 0 28
-13 49 -30 21 -16 43 -30 49 -30 6 0 11 -4 11 -10 0 -5 4 -10 10 -10 15 0 50
-33 50 -48 0 -7 4 -11 9 -7 5 3 16 -4 24 -15 7 -11 17 -17 20 -13 4 3 7 1 7
-5 0 -7 3 -11 8 -11 19 3 33 -2 28 -10 -3 -5 5 -12 19 -15 14 -4 25 -10 25
-15 0 -5 14 -14 30 -21 17 -7 30 -17 30 -22 0 -5 3 -7 8 -5 9 5 42 -29 35 -36
-2 -3 5 -8 16 -12 12 -3 21 -11 21 -17 0 -6 3 -9 6 -6 3 3 17 -5 31 -18 14
-13 32 -24 39 -24 8 0 14 -4 14 -10 0 -5 7 -10 15 -10 8 0 15 -4 15 -10 0 -5
7 -10 15 -10 9 0 12 -6 9 -15 -4 -9 0 -15 10 -15 9 0 16 -4 16 -10 0 -5 7 -7
15 -4 8 4 15 1 15 -5 0 -6 3 -10 8 -8 4 1 7 0 7 -3 2 -13 40 -48 47 -44 5 3
17 -3 27 -15 10 -11 21 -18 25 -14 3 3 6 2 6 -4 0 -5 11 -15 25 -21 30 -14 43
-24 98 -74 22 -21 43 -38 47 -38 4 0 20 -11 36 -25 16 -14 34 -25 39 -25 6 0
23 -11 38 -25 15 -14 27 -23 27 -20 0 4 7 -1 16 -9 8 -9 20 -14 24 -11 5 3 7
-4 5 -15 -3 -15 1 -20 16 -20 29 0 59 -18 59 -36 0 -8 4 -12 10 -9 5 3 15 -3
22 -15 7 -11 17 -20 21 -20 5 0 23 -10 40 -22 17 -13 39 -27 47 -33 76 -48 90
-58 90 -66 0 -4 7 -6 15 -3 8 4 15 1 15 -5 0 -6 7 -11 15 -11 8 0 15 -7 15
-16 0 -8 5 -12 10 -9 5 3 10 1 10 -5 0 -6 7 -18 15 -26 8 -9 15 -13 15 -9 0 4
7 -1 16 -9 8 -9 20 -13 26 -10 6 4 8 2 5 -3 -6 -10 7 -20 27 -21 5 0 13 -7 18
-16 5 -9 14 -16 20 -16 6 0 19 -9 29 -21 9 -11 20 -20 23 -20 20 3 26 -1 26
-14 0 -9 8 -18 18 -21 48 -17 69 -29 66 -38 -2 -6 19 -24 46 -41 28 -16 50
-33 50 -37 0 -4 6 -8 14 -8 7 0 19 -7 26 -15 7 -8 16 -13 20 -10 4 3 10 -2 14
-10 3 -8 12 -15 21 -15 8 0 15 -5 15 -11 0 -5 5 -7 10 -4 6 3 10 2 10 -4 0 -6
13 -17 30 -26 16 -8 43 -28 58 -43 28 -26 44 -34 69 -35 7 0 10 -4 8 -8 -6 -9
58 -65 83 -73 11 -4 23 -14 26 -22 3 -8 10 -12 16 -9 5 3 10 1 10 -4 0 -6 7
-11 15 -11 8 0 15 -4 15 -10 0 -5 6 -10 14 -10 8 0 16 -3 18 -7 5 -11 97 -73
108 -73 6 0 10 -4 10 -10 0 -5 6 -10 13 -10 7 0 24 -11 39 -24 14 -14 29 -22
32 -19 3 4 6 2 6 -4 0 -6 14 -16 30 -23 18 -7 30 -20 30 -31 0 -11 7 -17 18
-17 24 2 93 -42 86 -54 -3 -5 3 -12 15 -15 12 -3 21 -9 21 -12 0 -4 10 -7 23
-7 16 1 21 -4 19 -18 -2 -10 1 -15 7 -12 5 4 13 1 18 -7 9 -15 63 -50 63 -42
0 4 6 0 14 -7 31 -32 147 -100 160 -95 10 4 14 0 11 -14 -2 -11 0 -17 4 -14 5
2 14 -2 21 -10 7 -8 19 -15 27 -15 8 0 12 -4 9 -9 -3 -4 13 -13 35 -20 22 -7
37 -16 34 -21 -6 -9 8 -14 28 -11 4 0 7 -4 7 -10 0 -5 4 -8 9 -5 7 5 20 -3 68
-44 7 -5 15 -10 19 -10 4 0 22 -11 40 -25 18 -14 37 -25 43 -25 6 0 11 -4 11
-10 0 -5 7 -10 15 -10 8 0 15 -4 15 -9 0 -10 39 -27 53 -23 5 1 5 -2 2 -8 -4
-7 2 -14 14 -17 12 -3 21 -9 21 -14 0 -5 7 -9 15 -9 8 0 15 -4 15 -9 0 -10 36
-26 70 -30 6 0 10 -8 10 -16 0 -8 3 -15 8 -16 27 -3 44 -9 58 -23 8 -9 19 -14
24 -11 5 3 10 1 12 -3 5 -12 95 -72 108 -72 6 0 8 -4 5 -10 -3 -5 1 -10 9 -10
8 0 22 -7 30 -16 9 -8 16 -13 16 -10 0 3 14 0 30 -5 16 -6 30 -15 30 -20 0 -5
7 -9 15 -9 8 0 15 -4 15 -9 0 -8 60 -41 84 -45 17 -4 76 -40 76 -48 0 -3 9 -4
20 -1 11 3 20 0 20 -6 0 -6 7 -11 15 -11 8 0 15 -4 15 -9 0 -10 38 -24 58 -22
6 1 12 -4 12 -10 0 -7 3 -10 6 -6 4 3 13 -1 21 -9 9 -8 22 -13 29 -10 8 3 14
2 14 -2 0 -4 15 -13 33 -20 17 -8 44 -20 58 -27 14 -8 29 -12 33 -8 3 3 6 1 6
-5 0 -7 9 -12 20 -12 11 0 20 -5 20 -11 0 -5 4 -8 9 -4 5 3 13 0 16 -6 4 -5
13 -8 20 -5 8 3 15 0 17 -5 2 -5 13 -11 26 -12 12 0 22 -5 22 -10 0 -4 4 -6 8
-3 5 3 20 -1 33 -8 14 -7 34 -12 46 -11 12 1 20 -2 17 -7 -3 -4 -2 -8 3 -9 4
0 15 -2 23 -4 8 -3 24 -6 35 -7 11 -2 23 -7 26 -11 3 -5 12 -9 20 -10 8 -2 20
-7 28 -11 10 -7 12 -5 6 5 -6 9 -2 9 11 -2 10 -9 31 -15 47 -14 15 2 27 -1 27
-7 0 -5 7 -8 15 -5 8 4 17 2 20 -2 3 -5 14 -7 25 -4 12 3 20 0 20 -7 0 -7 7
-10 15 -7 8 4 17 2 20 -4 4 -5 11 -7 16 -4 5 4 9 2 9 -2 0 -5 13 -9 30 -9 16
-1 37 -5 47 -9 10 -4 30 -8 45 -9 14 0 30 -4 34 -9 12 -12 26 -8 17 6 -4 7 4
5 18 -5 16 -10 31 -13 39 -8 9 5 20 4 28 -2 7 -7 35 -12 60 -13 26 0 52 -3 57
-6 6 -4 29 -6 53 -5 23 0 42 -1 42 -4 0 -3 17 -4 37 -4 21 1 44 -4 52 -10 11
-8 13 -8 7 2 -5 9 -1 11 16 8 13 -3 23 -5 23 -6 0 -1 10 -3 22 -4 12 -1 20 1
17 6 -3 4 -1 8 5 8 5 0 12 -6 14 -12 4 -10 8 -9 16 2 8 11 11 12 11 2 0 -17
148 -15 169 2 11 8 15 8 18 -1 4 -10 10 -10 25 -2 16 8 19 8 13 -1 -6 -9 -2
-9 14 -1 16 9 21 9 21 -1 0 -10 2 -10 9 0 5 9 22 13 44 11 20 -2 39 -1 42 3 4
3 18 4 32 2 14 -3 31 0 39 7 11 9 14 9 14 0 0 -8 6 -9 18 -3 9 5 34 8 55 8 20
-1 37 2 37 7 0 5 7 7 15 4 8 -4 17 -2 21 4 4 6 11 6 20 -2 8 -6 14 -7 14 -2 0
5 14 9 30 8 16 -1 30 1 30 5 0 4 10 6 23 6 12 -1 27 2 34 7 6 4 35 9 62 10 28
1 51 6 51 11 0 4 11 6 25 4 13 -3 23 -1 22 5 -1 5 14 12 33 14 19 2 41 6 48 8
7 3 13 4 15 3 1 -1 13 5 27 12 14 8 36 14 50 15 14 1 36 8 50 15 14 7 39 14
55 15 17 1 29 7 27 14 -2 13 20 10 30 -4 5 -6 8 -5 8 3 0 13 39 32 75 37 36 5
50 10 57 19 3 5 17 11 30 13 13 2 25 8 26 13 2 6 8 8 13 4 5 -3 12 1 15 10 3
8 11 13 19 10 7 -3 27 4 46 15 18 11 36 18 41 15 4 -3 8 0 8 6 0 6 4 9 9 5 5
-3 12 -1 16 5 3 5 13 10 22 10 9 0 42 18 74 40 33 22 59 37 59 34 0 -3 11 1
25 10 14 9 31 14 37 10 7 -4 8 -3 4 4 -4 7 -1 12 7 12 8 0 18 7 21 16 3 8 10
12 16 9 5 -3 10 -2 10 3 0 5 16 17 35 28 19 10 35 22 35 26 0 5 7 8 15 8 7 0
18 7 23 16 5 9 12 15 16 14 5 -2 30 14 57 34 27 20 54 34 60 31 5 -4 8 -3 7 2
-2 4 0 8 3 8 3 0 25 19 48 43 23 23 46 42 52 42 6 0 7 4 4 10 -6 9 8 14 28 11
5 -1 6 3 3 7 -3 5 4 17 17 26 45 33 62 47 47 41 -8 -4 -4 3 10 14 14 11 28 21
33 21 4 0 7 7 7 15 0 8 4 14 9 13 5 -2 11 1 12 7 7 18 44 51 53 47 5 -3 6 0 3
5 -4 6 0 16 8 23 8 7 15 19 15 27 0 8 5 11 12 7 8 -5 9 -2 5 10 -4 9 -3 15 2
12 5 -3 17 5 27 19 10 13 21 22 24 20 3 -2 7 6 7 18 1 12 8 26 16 32 8 5 15
15 16 20 2 6 8 8 14 7 7 -2 9 0 4 4 -4 4 3 19 15 32 13 14 16 21 8 17 -12 -7
-13 -6 -3 7 7 8 9 19 5 23 -4 5 1 5 11 2 11 -4 17 -1 17 8 0 18 20 57 35 67 6
5 5 8 -2 8 -7 0 -10 7 -7 15 4 8 10 13 14 10 4 -3 10 4 13 15 3 10 0 21 -7 24
-6 2 -3 5 6 5 9 1 20 6 24 13 4 7 3 8 -4 4 -8 -5 -10 -2 -6 8 3 9 11 13 18 9
6 -4 5 1 -3 10 -10 13 -10 17 -1 17 7 0 10 7 6 15 -3 9 1 18 9 21 10 4 13 15
9 37 -4 25 -3 28 5 17 8 -12 11 -8 11 18 0 23 4 31 12 26 7 -5 8 -3 2 7 -12
19 -12 33 1 42 6 4 5 10 -3 16 -11 7 -11 9 1 14 12 4 15 28 16 116 0 98 -2
111 -17 112 -14 0 -14 2 -2 7 19 9 24 32 6 32 -15 0 -16 41 -1 52 6 5 5 8 -4
8 -8 0 -11 7 -8 20 3 11 0 20 -5 20 -6 0 -5 6 2 15 11 13 10 14 -4 9 -13 -5
-16 0 -16 25 0 17 -4 31 -9 31 -5 0 -11 9 -14 20 -3 11 -1 18 4 14 5 -3 6 2 3
10 -3 9 -9 16 -13 16 -3 0 -12 9 -19 21 -8 12 -10 19 -5 16 5 -3 9 2 9 12 0
10 -7 18 -16 17 -8 -1 -14 6 -14 16 1 10 -2 16 -6 13 -8 -5 -24 24 -21 39 1 5
-7 15 -19 23 -11 8 -20 21 -20 29 0 8 -4 13 -10 9 -11 -7 -42 49 -32 60 4 5 2
5 -4 2 -6 -3 -26 7 -45 24 -19 17 -28 28 -21 24 6 -3 12 -3 12 0 0 3 -13 11
-30 16 -16 6 -30 15 -30 21 0 5 -4 6 -10 3 -6 -3 -10 1 -10 10 0 9 -4 13 -10
10 -5 -3 -10 -1 -10 5 0 6 -4 8 -10 5 -5 -3 -10 -2 -10 4 0 5 -10 13 -22 16
-43 13 -78 30 -78 39 0 4 -9 6 -20 3 -10 -3 -25 2 -31 10 -7 8 -21 12 -31 10
-10 -3 -18 -1 -18 4 0 5 -12 9 -26 9 -14 0 -23 4 -20 9 4 5 -4 7 -16 3 -15 -4
-19 -2 -13 7 6 10 3 11 -14 2 -11 -7 -21 -8 -21 -4 0 5 -20 13 -44 19 -25 5
-42 6 -39 1 3 -5 -4 -4 -15 2 -29 15 -65 14 -56 -1 6 -10 4 -10 -8 0 -18 14
-254 16 -263 2 -3 -5 -13 -6 -24 -3 -10 3 -32 -2 -47 -9 -16 -8 -39 -13 -51
-12 -13 0 -23 -2 -23 -6 0 -7 -42 -19 -82 -23 -10 -1 -18 -5 -18 -9 0 -4 -11
-8 -25 -8 -14 0 -25 -4 -25 -9 0 -8 -31 -22 -58 -25 -7 0 -17 -8 -22 -16 -5
-8 -10 -11 -10 -7 0 4 -16 -4 -35 -19 -19 -14 -35 -22 -35 -18 0 5 -5 1 -11
-8 -5 -10 -21 -18 -34 -18 -14 0 -26 -7 -29 -17 -4 -10 -28 -31 -55 -48 -27
-16 -47 -33 -45 -37 2 -4 -4 -11 -13 -17 -10 -6 -14 -11 -9 -11 5 0 -1 -9 -13
-19 -13 -11 -20 -25 -16 -31 3 -6 1 -9 -7 -8 -8 2 -13 -6 -12 -19 0 -14 -5
-23 -14 -23 -9 0 -13 -3 -10 -6 3 -3 -4 -15 -17 -28 -15 -15 -21 -32 -20 -54
1 -17 -2 -29 -6 -27 -11 7 -18 -21 -13 -49 2 -14 0 -26 -6 -26 -5 0 -10 -5
-10 -11 0 -5 6 -7 13 -4 6 4 3 -1 -7 -9 -15 -12 -16 -16 -5 -16 12 0 12 -2 -1
-10 -8 -5 -11 -12 -7 -16 4 -4 -1 -13 -11 -21 -9 -8 -11 -12 -4 -8 7 4 12 0
12 -10 0 -9 -5 -13 -11 -9 -8 4 -8 0 0 -15 9 -16 8 -26 -5 -46 -9 -14 -13 -25
-8 -25 4 0 3 -5 -4 -12 -9 -9 -8 -16 6 -32 9 -11 12 -16 6 -13 -7 4 -15 0 -18
-9 -4 -10 -2 -13 7 -8 8 5 7 2 -2 -9 -7 -9 -11 -26 -8 -37 3 -11 1 -18 -3 -15
-5 3 -11 1 -15 -5 -3 -5 -1 -10 6 -10 8 0 8 -4 1 -12 -5 -7 -8 -23 -6 -35 4
-24 -11 -32 -19 -10 -2 6 -4 -6 -3 -28 0 -27 -3 -39 -12 -37 -6 1 -12 -5 -12
-13 0 -8 -5 -15 -11 -15 -5 0 -7 -4 -4 -10 3 -5 2 -10 -3 -10 -6 0 -13 -11
-16 -25 -4 -15 -17 -30 -31 -35 -14 -5 -25 -14 -25 -20 0 -6 -4 -8 -10 -5 -5
3 -10 -1 -10 -9 0 -8 -9 -18 -20 -21 -11 -3 -20 -11 -20 -16 0 -5 -7 -9 -15
-9 -7 0 -19 -8 -24 -17 -6 -10 -11 -13 -11 -7 0 6 -7 11 -14 11 -8 0 -14 -5
-13 -11 1 -5 -2 -10 -8 -11 -5 0 -19 -5 -30 -11 -11 -6 -32 -9 -48 -8 -16 2
-25 -1 -22 -7 4 -5 -6 -9 -22 -9 -42 0 -63 -3 -63 -9 0 -5 -77 -6 -158 -2 -8
1 -10 6 -6 14 5 9 4 9 -6 0 -9 -8 -19 -9 -32 -2 -13 7 -18 6 -18 -2 0 -8 -4
-8 -15 1 -8 7 -15 9 -15 4 0 -5 -5 -1 -11 9 -6 10 -15 14 -22 10 -20 -12 -37
-12 -34 0 1 7 -4 11 -11 9 -7 -1 -23 3 -35 10 -12 7 -25 11 -29 10 -5 -1 -8 3
-8 9 0 6 -6 9 -14 6 -8 -3 -20 1 -26 9 -7 8 -19 14 -26 14 -8 0 -14 4 -14 10
0 5 -7 7 -16 3 -9 -3 -19 -2 -23 3 -11 17 -86 61 -113 67 -15 4 -33 13 -40 20
-25 23 -77 57 -88 57 -5 0 -10 5 -10 10 0 6 -7 10 -15 10 -8 0 -15 5 -15 10 0
6 -6 10 -14 10 -8 0 -22 10 -30 22 -9 13 -16 17 -16 9 0 -10 -3 -11 -13 -2 -8
6 -17 8 -20 4 -4 -3 -7 1 -7 10 0 15 -11 22 -32 18 -5 0 -8 3 -8 9 0 5 -9 10
-21 10 -11 0 -18 4 -15 9 3 5 -5 12 -19 15 -14 4 -25 11 -25 17 0 6 -4 8 -9 5
-5 -3 -11 1 -15 9 -3 8 -12 15 -21 15 -8 0 -15 3 -15 8 0 4 -17 16 -37 27 -21
11 -45 28 -55 37 -10 10 -23 19 -30 20 -6 2 -22 12 -36 23 -13 11 -26 19 -28
17 -3 -1 -11 3 -18 11 -8 8 -38 29 -68 48 -29 18 -57 39 -63 45 -5 6 -24 17
-42 25 -17 7 -29 17 -27 21 3 4 -2 8 -10 8 -8 0 -25 10 -37 23 -12 12 -19 15
-15 7 6 -12 5 -12 -6 1 -7 8 -28 24 -45 34 -18 11 -33 23 -33 28 0 4 -4 6 -8
3 -5 -3 -20 6 -34 19 -14 13 -28 22 -30 20 -2 -2 -17 7 -32 20 -16 14 -35 25
-43 25 -8 0 -11 5 -8 10 6 9 -8 15 -29 11 -5 -1 -6 4 -3 12 3 8 -7 21 -26 32
-18 10 -49 31 -69 47 -21 17 -38 26 -38 21 0 -4 -5 0 -11 10 -6 9 -14 15 -20
12 -5 -4 -12 0 -15 8 -3 9 -19 21 -35 27 -16 7 -29 16 -29 20 0 4 -14 13 -30
20 -17 7 -30 17 -30 22 0 5 -4 7 -9 4 -5 -3 -11 1 -15 9 -3 8 -11 15 -18 15
-7 0 -25 11 -40 25 -15 14 -30 25 -33 25 -12 0 -45 26 -45 36 0 6 -21 19 -46
29 -31 12 -44 22 -40 31 4 10 -3 14 -24 14 -17 0 -30 5 -30 10 0 6 -5 10 -11
10 -16 0 -69 47 -62 54 4 3 2 6 -3 6 -6 0 -21 10 -34 23 -14 12 -26 20 -28 18
-2 -1 -15 6 -28 18 -13 11 -27 22 -32 23 -18 4 -72 41 -72 49 0 5 -9 9 -21 9
-11 0 -17 5 -14 10 3 6 0 10 -8 10 -7 0 -22 8 -33 18 -10 10 -22 19 -27 20
-21 5 -87 56 -87 68 0 7 -12 14 -27 16 -17 2 -27 8 -25 16 1 8 -7 16 -18 19
-11 3 -20 9 -20 14 0 5 -4 9 -10 9 -9 0 -93 54 -115 75 -7 6 -28 19 -48 30
-20 11 -37 23 -37 27 0 5 -7 8 -15 8 -8 0 -15 5 -15 10 0 6 -7 10 -15 10 -8 0
-15 4 -15 9 0 5 -13 14 -30 21 -16 7 -41 24 -55 37 -14 14 -25 22 -26 17 0 -5
-4 0 -8 11 -4 11 -17 20 -27 20 -10 0 -18 6 -17 13 2 6 -3 12 -11 12 -8 0 -17
7 -20 16 -3 8 -10 12 -16 9 -5 -3 -10 -2 -10 2 0 5 -18 19 -40 33 -22 14 -40
28 -40 33 0 4 -4 6 -9 3 -4 -3 -29 15 -55 39 -25 25 -51 45 -56 45 -5 0 -15 8
-22 18 -7 9 -20 18 -28 20 -8 2 -16 8 -18 13 -2 5 -10 9 -18 9 -8 0 -14 5 -14
10 0 6 -7 10 -15 10 -8 0 -15 5 -15 10 0 6 -7 10 -16 10 -8 0 -12 5 -9 10 3 6
-3 10 -15 10 -12 0 -19 4 -16 9 3 5 -10 21 -29 35 -19 15 -35 25 -35 22 0 -5
-9 1 -62 46 -11 10 -25 15 -29 12 -5 -3 -9 0 -9 5 0 6 -5 11 -10 11 -6 0 -23
11 -37 24 -15 14 -30 23 -34 21 -4 -3 -6 3 -5 12 0 10 -6 18 -14 19 -37 3 -43
4 -37 10 7 8 -17 34 -32 34 -5 0 -14 6 -18 14 -4 8 -15 16 -23 18 -15 3 -22 7
-59 38 -13 11 -32 22 -42 25 -11 4 -19 11 -19 16 0 5 -7 9 -15 9 -8 0 -15 5
-15 10 0 6 -7 10 -17 10 -9 0 -13 3 -10 7 6 5 -16 28 -59 63 -7 5 -15 6 -18 3
-3 -4 -6 -1 -6 5 0 7 -5 12 -11 12 -11 0 -79 48 -91 65 -5 7 -8 7 -8 0 0 -7
-3 -7 -8 0 -4 6 -16 15 -27 22 -11 6 -19 16 -18 21 2 6 -6 14 -17 17 -11 4
-18 11 -14 16 3 5 2 8 -3 7 -9 -3 -55 21 -63 33 -3 4 -12 9 -20 11 -21 5 -39
22 -32 32 3 5 0 6 -6 2 -5 -3 -24 6 -41 20 -17 14 -31 23 -31 19 0 -3 -7 0
-15 9 -8 8 -15 17 -15 21 0 11 -27 34 -34 28 -3 -3 -8 2 -12 11 -3 9 -11 16
-16 16 -17 0 -118 75 -118 88 0 6 -11 12 -25 12 -14 0 -25 4 -25 10 0 5 -3 9
-7 7 -5 -1 -9 2 -10 6 -4 13 -26 31 -83 67 -30 19 -64 43 -74 52 -11 10 -23
18 -28 18 -4 0 -8 7 -8 15 0 8 -5 15 -11 15 -11 0 -82 50 -87 63 -2 4 -8 5
-13 1 -5 -3 -9 -1 -9 5 0 5 -8 12 -18 15 -10 4 -27 14 -38 24 -10 9 -31 23
-46 31 -15 8 -25 17 -23 21 4 7 -19 22 -37 24 -3 1 -15 11 -26 24 -11 12 -24
22 -31 22 -6 0 -11 5 -11 10 0 6 -5 10 -10 10 -6 0 -20 9 -32 20 -12 11 -28
20 -35 20 -8 0 -11 5 -8 10 3 6 -1 10 -9 10 -9 0 -16 6 -16 13 0 6 -23 26 -51
42 -28 17 -62 40 -75 52 -14 12 -27 21 -30 20 -6 -3 -47 29 -89 70 -18 17 -36
29 -39 26 -3 -4 -6 -1 -6 5 0 7 -7 12 -15 12 -8 0 -15 5 -15 10 0 6 -7 10 -15
10 -8 0 -15 4 -15 8 0 5 -16 17 -35 28 -19 10 -35 22 -35 26 0 5 -3 7 -7 6 -5
-2 -22 11 -40 29 -17 17 -46 39 -62 49 -17 10 -31 22 -31 26 0 4 -5 8 -11 8
-12 0 -103 60 -107 72 -2 4 -10 8 -18 8 -8 0 -14 5 -14 11 0 5 -5 7 -10 4 -6
-3 -13 1 -16 9 -3 9 -10 14 -14 11 -5 -3 -12 0 -17 7 -4 7 -20 19 -35 27 -15
8 -38 24 -50 35 -12 12 -26 20 -30 18 -5 -1 -7 3 -6 10 2 7 -7 17 -19 23 -13
5 -23 13 -23 17 0 5 -7 8 -15 8 -8 0 -15 5 -15 10 0 6 -7 10 -16 10 -8 0 -12
5 -9 10 3 6 -1 10 -10 10 -9 0 -23 6 -30 13 -34 30 -43 35 -49 30 -3 -4 -6 -1
-6 5 0 7 -6 12 -13 12 -7 0 -31 17 -53 38 -21 21 -55 49 -74 62 -19 13 -38 29
-42 35 -4 5 -8 6 -8 1 0 -6 -9 0 -20 12 -12 12 -27 22 -35 22 -8 0 -15 4 -15
8 0 5 -16 17 -35 28 -19 10 -35 24 -35 31 0 7 -3 13 -7 14 -32 3 -49 10 -60
25 -7 10 -13 14 -13 10 0 -5 -7 -3 -15 4 -13 11 -13 15 -3 21 13 9 -7 13 -44
10 -12 -2 -15 4 -11 20 4 14 2 20 -4 16 -6 -4 -23 5 -39 18 -16 14 -35 25 -41
25 -7 0 -13 5 -13 10 0 6 -7 10 -15 10 -8 0 -15 4 -15 8 0 5 -12 15 -27 23
-16 8 -37 22 -47 32 -11 9 -26 17 -33 17 -7 0 -13 5 -13 10 0 6 -7 10 -15 10
-8 0 -15 3 -15 8 0 4 -23 21 -50 37 -27 17 -50 33 -50 38 0 4 -6 7 -14 7 -7 0
-26 15 -42 33 -16 17 -41 39 -56 47 -15 8 -73 46 -130 85 -57 38 -106 69 -111
67 -4 -1 -6 1 -6 5 4 23 -3 33 -23 33 -13 0 -36 15 -55 37 -18 20 -33 33 -33
29 0 -4 -7 0 -16 8 -8 9 -20 13 -26 10 -6 -4 -8 -3 -5 3 4 6 -9 19 -28 29 -19
10 -35 22 -35 27 0 4 -4 5 -10 2 -5 -3 -10 -2 -10 3 0 5 -12 15 -27 23 -16 8
-30 16 -33 19 -3 3 -31 23 -64 44 -32 21 -68 49 -79 62 -11 13 -24 21 -29 18
-4 -3 -8 2 -8 11 0 9 -5 13 -10 10 -6 -3 -13 1 -16 9 -3 8 -15 18 -27 22 -11
3 -30 15 -41 25 -11 11 -26 19 -33 19 -7 0 -13 4 -13 9 0 5 -7 11 -15 15 -13
5 -15 -107 -13 -992z"/>
<path d="M8470 6512 c0 -5 -12 -8 -27 -8 -16 1 -37 -5 -47 -14 -11 -9 -16 -10
-12 -2 4 6 2 12 -3 12 -6 0 -11 -4 -11 -8 0 -5 -7 -9 -15 -10 -8 -1 -22 -3
-30 -4 -8 -1 -15 -5 -15 -10 0 -5 -5 -6 -10 -3 -6 4 -17 1 -25 -5 -8 -6 -19
-9 -25 -5 -5 3 -10 1 -10 -4 0 -6 -3 -10 -7 -9 -5 0 -17 -2 -28 -6 -11 -5 -27
-10 -35 -14 -8 -3 -19 -4 -23 -3 -5 1 -6 -2 -3 -7 3 -5 -17 -19 -44 -31 -28
-13 -50 -27 -50 -32 0 -6 -5 -7 -10 -4 -6 3 -13 -1 -16 -10 -4 -9 -13 -14 -21
-11 -8 3 -11 1 -8 -4 3 -6 0 -10 -7 -10 -7 0 -19 -9 -26 -20 -7 -11 -17 -20
-22 -20 -6 0 -25 -16 -44 -35 -18 -19 -36 -31 -40 -28 -3 4 -6 0 -6 -8 0 -8
-9 -21 -19 -29 -11 -7 -18 -17 -15 -22 3 -4 -2 -8 -10 -8 -15 0 -21 -12 -17
-33 1 -5 -3 -6 -9 -2 -5 3 -13 -2 -17 -12 -3 -10 -12 -22 -20 -26 -7 -4 -13
-15 -13 -22 0 -8 -4 -15 -10 -15 -5 0 -10 -7 -10 -15 0 -8 -4 -15 -10 -15 -5
0 -10 -7 -10 -15 0 -8 -5 -15 -11 -15 -5 0 -7 -4 -4 -10 3 -5 2 -10 -4 -10 -5
0 -8 -9 -6 -20 2 -11 0 -18 -4 -15 -5 2 -19 -21 -32 -53 -12 -31 -28 -60 -33
-64 -7 -5 -6 -8 3 -8 11 0 11 -3 1 -15 -7 -8 -9 -15 -4 -15 5 0 0 -7 -10 -15
-14 -11 -16 -15 -5 -15 8 0 10 -3 4 -8 -11 -8 -17 -28 -18 -52 0 -8 -3 -19 -7
-25 -3 -5 -6 -25 -5 -42 1 -18 -2 -33 -6 -33 -10 0 -7 -29 5 -49 7 -10 5 -12
-3 -6 -10 6 -12 -19 -8 -120 3 -70 10 -132 16 -138 7 -7 7 -16 0 -29 -5 -10
-6 -18 -2 -18 8 0 13 -23 16 -67 0 -7 4 -10 9 -7 4 3 8 -10 8 -30 0 -19 4 -36
10 -38 5 -1 11 -14 12 -28 2 -14 5 -27 8 -30 3 -3 20 -35 39 -72 18 -38 37
-68 43 -68 5 0 7 -4 4 -9 -5 -7 3 -20 44 -68 6 -7 9 -13 6 -13 -6 0 23 -32
108 -122 33 -35 62 -63 65 -63 3 0 5 -3 3 -7 -1 -5 5 -8 13 -8 8 0 15 -5 15
-11 0 -5 5 -7 10 -4 6 3 10 1 10 -5 0 -6 11 -15 25 -22 13 -6 22 -15 19 -20
-3 -5 -2 -8 3 -7 21 4 34 -2 27 -13 -4 -6 -3 -8 4 -4 6 3 17 0 25 -8 8 -8 17
-12 21 -9 3 4 6 1 6 -5 0 -6 7 -9 15 -6 8 4 15 2 15 -4 0 -5 11 -13 25 -16 14
-4 23 -11 20 -16 -3 -5 3 -7 15 -5 11 2 22 0 25 -6 4 -5 15 -9 26 -9 10 0 19
-6 19 -12 0 -9 4 -8 10 2 6 10 10 11 10 3 0 -7 9 -13 20 -13 11 0 20 -4 20 -8
0 -5 20 -8 44 -8 24 1 44 -3 43 -9 -1 -5 19 -9 46 -10 26 0 47 -2 47 -5 0 -3
20 -6 45 -6 30 -1 42 2 38 10 -3 6 0 5 8 -1 7 -7 23 -13 36 -13 13 0 23 6 23
13 0 9 3 8 9 -2 8 -12 48 -11 131 5 8 2 31 5 50 8 19 3 36 6 38 7 1 1 5 2 10
4 4 1 14 5 23 9 9 4 20 6 25 4 5 -1 19 3 30 10 12 6 24 9 27 5 4 -3 10 2 13
11 5 14 9 15 15 4 7 -10 9 -11 9 0 0 7 5 10 10 7 6 -3 10 -1 10 5 0 6 4 9 9 5
5 -3 13 0 16 6 4 5 14 8 22 5 8 -3 11 -1 8 4 -5 9 9 15 18 8 2 -2 11 4 20 12
36 33 47 40 62 40 8 0 15 5 15 10 0 6 5 10 11 10 7 0 18 8 25 18 7 9 17 17 22
17 6 0 21 12 34 26 13 14 30 23 37 21 8 -3 11 0 8 5 -4 6 4 19 18 29 13 10 22
21 19 26 -3 4 2 8 10 8 9 0 16 3 16 8 0 4 12 21 28 37 41 45 82 102 82 114 0
6 5 11 10 11 6 0 10 7 10 15 0 9 7 18 15 21 8 4 13 10 10 14 -3 4 2 13 10 20
8 7 12 16 9 21 -3 5 2 16 10 25 9 9 14 20 11 25 -4 5 -1 9 5 9 6 0 9 4 5 9 -3
5 -1 12 5 16 6 4 8 10 5 15 -3 5 3 13 12 19 12 7 13 10 4 11 -11 0 -11 3 -1
15 7 8 9 15 5 15 -4 0 -2 6 4 13 6 8 8 17 4 20 -3 4 -2 7 4 7 6 0 10 15 9 34
-1 19 2 32 6 30 5 -3 9 7 9 23 3 59 4 68 11 79 6 9 4 279 -2 279 -2 0 -19 80
-22 113 -1 6 -6 12 -12 12 -6 0 -4 5 4 10 10 6 11 10 3 10 -7 0 -13 9 -13 20
0 11 -4 28 -9 38 -21 42 -45 98 -46 107 -1 6 -12 28 -26 50 -13 22 -22 47 -20
55 1 8 -1 12 -5 8 -6 -7 -54 52 -54 67 0 7 -40 52 -82 92 -15 14 -25 31 -21
37 3 6 3 8 -1 4 -5 -4 -19 5 -32 19 -13 14 -24 22 -24 17 0 -5 -9 4 -19 19
-10 16 -22 28 -26 27 -4 -1 -18 7 -31 19 -13 12 -28 21 -33 21 -4 0 -20 11
-34 24 -14 13 -28 22 -30 20 -2 -2 -19 6 -38 19 -20 13 -43 23 -52 21 -9 -1
-15 2 -11 7 3 5 -3 9 -13 9 -10 0 -29 7 -41 16 -12 8 -22 12 -22 8 0 -5 -5 -3
-12 4 -7 7 -22 12 -34 12 -13 0 -25 4 -28 8 -3 5 -19 9 -35 10 -16 0 -43 8
-60 16 -19 10 -32 12 -36 6 -3 -6 -11 -10 -16 -10 -6 0 -8 4 -5 8 3 5 -56 9
-131 11 -85 1 -133 -2 -129 -8 7 -11 -13 -9 -31 2 -7 5 -13 4 -13 -1z"/>
<path d="M9245 2500 c-3 -5 -1 -10 4 -10 6 0 11 5 11 10 0 6 -2 10 -4 10 -3 0
-8 -4 -11 -10z"/>
</g>
</svg>
